<svg width="938" height="752" viewBox="0 0 938 752" fill="none" xmlns="http://www.w3.org/2000/svg">
<g opacity="0.2">
<path opacity="0.2" d="M653.448 700.348V412.348V700.348Z" stroke="#153144" stroke-width="6" stroke-miterlimit="10" stroke-linecap="round" stroke-linejoin="round"/>
<path opacity="0.2" d="M507.7 319.4H395.7V700.3H507.7V319.4Z" stroke="#153144" stroke-width="6" stroke-miterlimit="10" stroke-linecap="round" stroke-linejoin="round"/>
<g opacity="0.2">
<g opacity="0.2">
<g opacity="0.2">
<path opacity="0.2" d="M415.1 617.3H488.1" stroke="#153144" stroke-width="6" stroke-miterlimit="10" stroke-linecap="round" stroke-linejoin="round"/>
<path opacity="0.2" d="M415.1 629.3H488.1" stroke="#153144" stroke-width="6" stroke-miterlimit="10" stroke-linecap="round" stroke-linejoin="round"/>
</g>
</g>
<g opacity="0.2">
<g opacity="0.2">
<path opacity="0.2" d="M415.1 583.3H488.1" stroke="#153144" stroke-width="6" stroke-miterlimit="10" stroke-linecap="round" stroke-linejoin="round"/>
<path opacity="0.2" d="M415.1 595.3H488.1" stroke="#153144" stroke-width="6" stroke-miterlimit="10" stroke-linecap="round" stroke-linejoin="round"/>
</g>
</g>
<g opacity="0.2">
<g opacity="0.2">
<path opacity="0.2" d="M415.1 549.3H488.1" stroke="#153144" stroke-width="6" stroke-miterlimit="10" stroke-linecap="round" stroke-linejoin="round"/>
<path opacity="0.2" d="M415.1 561.3H488.1" stroke="#153144" stroke-width="6" stroke-miterlimit="10" stroke-linecap="round" stroke-linejoin="round"/>
</g>
</g>
<g opacity="0.2">
<g opacity="0.2">
<path opacity="0.2" d="M415.1 515.3H488.1" stroke="#153144" stroke-width="6" stroke-miterlimit="10" stroke-linecap="round" stroke-linejoin="round"/>
<path opacity="0.2" d="M415.1 527.3H488.1" stroke="#153144" stroke-width="6" stroke-miterlimit="10" stroke-linecap="round" stroke-linejoin="round"/>
</g>
</g>
<g opacity="0.2">
<g opacity="0.2">
<path opacity="0.2" d="M415.1 481.3H488.1" stroke="#153144" stroke-width="6" stroke-miterlimit="10" stroke-linecap="round" stroke-linejoin="round"/>
<path opacity="0.2" d="M415.1 493.3H488.1" stroke="#153144" stroke-width="6" stroke-miterlimit="10" stroke-linecap="round" stroke-linejoin="round"/>
</g>
</g>
<g opacity="0.2">
<g opacity="0.2">
<path opacity="0.2" d="M415.1 447.3H488.1" stroke="#153144" stroke-width="6" stroke-miterlimit="10" stroke-linecap="round" stroke-linejoin="round"/>
<path opacity="0.2" d="M415.1 459.3H488.1" stroke="#153144" stroke-width="6" stroke-miterlimit="10" stroke-linecap="round" stroke-linejoin="round"/>
</g>
</g>
<g opacity="0.2">
<g opacity="0.2">
<path opacity="0.2" d="M415.1 413.3H488.1" stroke="#153144" stroke-width="6" stroke-miterlimit="10" stroke-linecap="round" stroke-linejoin="round"/>
<path opacity="0.2" d="M415.1 425.3H488.1" stroke="#153144" stroke-width="6" stroke-miterlimit="10" stroke-linecap="round" stroke-linejoin="round"/>
</g>
</g>
<g opacity="0.2">
<g opacity="0.2">
<path opacity="0.2" d="M415.1 379.3H488.1" stroke="#153144" stroke-width="6" stroke-miterlimit="10" stroke-linecap="round" stroke-linejoin="round"/>
<path opacity="0.2" d="M415.1 391.3H488.1" stroke="#153144" stroke-width="6" stroke-miterlimit="10" stroke-linecap="round" stroke-linejoin="round"/>
</g>
</g>
<g opacity="0.2">
<g opacity="0.2">
<path opacity="0.2" d="M415.1 345.3H488.1" stroke="#153144" stroke-width="6" stroke-miterlimit="10" stroke-linecap="round" stroke-linejoin="round"/>
<path opacity="0.2" d="M415.1 357.3H488.1" stroke="#153144" stroke-width="6" stroke-miterlimit="10" stroke-linecap="round" stroke-linejoin="round"/>
</g>
</g>
</g>
<path opacity="0.2" d="M488.7 319.4H414.7V276.4C414.7 256 431.3 239.4 451.7 239.4C472.1 239.4 488.7 256 488.7 276.4V319.4Z" stroke="#153144" stroke-width="6" stroke-miterlimit="10" stroke-linecap="round" stroke-linejoin="round"/>
<path opacity="0.2" d="M653.5 392.3H507.7V412.3H653.5V392.3Z" stroke="#153144" stroke-width="6" stroke-miterlimit="10" stroke-linecap="round" stroke-linejoin="round"/>
<g opacity="0.2">
<g opacity="0.2">
<g opacity="0.2">
<g opacity="0.2">
<path opacity="0.2" d="M631.1 644.3V659.3" stroke="#153144" stroke-width="6" stroke-miterlimit="10" stroke-linecap="round" stroke-linejoin="round"/>
</g>
<g opacity="0.2">
<path opacity="0.2" d="M611.1 644.3V659.3" stroke="#153144" stroke-width="6" stroke-miterlimit="10" stroke-linecap="round" stroke-linejoin="round"/>
</g>
<g opacity="0.2">
<path opacity="0.2" d="M591.1 644.3V659.3" stroke="#153144" stroke-width="6" stroke-miterlimit="10" stroke-linecap="round" stroke-linejoin="round"/>
</g>
<g opacity="0.2">
<path opacity="0.2" d="M571.1 644.3V659.3" stroke="#153144" stroke-width="6" stroke-miterlimit="10" stroke-linecap="round" stroke-linejoin="round"/>
</g>
<g opacity="0.2">
<path opacity="0.2" d="M551.1 644.3V659.3" stroke="#153144" stroke-width="6" stroke-miterlimit="10" stroke-linecap="round" stroke-linejoin="round"/>
</g>
<g opacity="0.2">
<path opacity="0.2" d="M531.1 644.3V659.3" stroke="#153144" stroke-width="6" stroke-miterlimit="10" stroke-linecap="round" stroke-linejoin="round"/>
</g>
</g>
</g>
<g opacity="0.2">
<g opacity="0.2">
<g opacity="0.2">
<path opacity="0.2" d="M631.1 604.3V619.3" stroke="#153144" stroke-width="6" stroke-miterlimit="10" stroke-linecap="round" stroke-linejoin="round"/>
</g>
<g opacity="0.2">
<path opacity="0.2" d="M611.1 604.3V619.3" stroke="#153144" stroke-width="6" stroke-miterlimit="10" stroke-linecap="round" stroke-linejoin="round"/>
</g>
<g opacity="0.2">
<path opacity="0.2" d="M591.1 604.3V619.3" stroke="#153144" stroke-width="6" stroke-miterlimit="10" stroke-linecap="round" stroke-linejoin="round"/>
</g>
<g opacity="0.2">
<path opacity="0.2" d="M571.1 604.3V619.3" stroke="#153144" stroke-width="6" stroke-miterlimit="10" stroke-linecap="round" stroke-linejoin="round"/>
</g>
<g opacity="0.2">
<path opacity="0.2" d="M551.1 604.3V619.3" stroke="#153144" stroke-width="6" stroke-miterlimit="10" stroke-linecap="round" stroke-linejoin="round"/>
</g>
<g opacity="0.2">
<path opacity="0.2" d="M531.1 604.3V619.3" stroke="#153144" stroke-width="6" stroke-miterlimit="10" stroke-linecap="round" stroke-linejoin="round"/>
</g>
</g>
</g>
<g opacity="0.2">
<g opacity="0.2">
<g opacity="0.2">
<path opacity="0.2" d="M631.1 564.3V579.3" stroke="#153144" stroke-width="6" stroke-miterlimit="10" stroke-linecap="round" stroke-linejoin="round"/>
</g>
<g opacity="0.2">
<path opacity="0.2" d="M611.1 564.3V579.3" stroke="#153144" stroke-width="6" stroke-miterlimit="10" stroke-linecap="round" stroke-linejoin="round"/>
</g>
<g opacity="0.2">
<path opacity="0.2" d="M591.1 564.3V579.3" stroke="#153144" stroke-width="6" stroke-miterlimit="10" stroke-linecap="round" stroke-linejoin="round"/>
</g>
<g opacity="0.2">
<path opacity="0.2" d="M571.1 564.3V579.3" stroke="#153144" stroke-width="6" stroke-miterlimit="10" stroke-linecap="round" stroke-linejoin="round"/>
</g>
<g opacity="0.2">
<path opacity="0.2" d="M551.1 564.3V579.3" stroke="#153144" stroke-width="6" stroke-miterlimit="10" stroke-linecap="round" stroke-linejoin="round"/>
</g>
<g opacity="0.2">
<path opacity="0.2" d="M531.1 564.3V579.3" stroke="#153144" stroke-width="6" stroke-miterlimit="10" stroke-linecap="round" stroke-linejoin="round"/>
</g>
</g>
</g>
<g opacity="0.2">
<g opacity="0.2">
<g opacity="0.2">
<path opacity="0.2" d="M631.1 524.3V539.3" stroke="#153144" stroke-width="6" stroke-miterlimit="10" stroke-linecap="round" stroke-linejoin="round"/>
</g>
<g opacity="0.2">
<path opacity="0.2" d="M611.1 524.3V539.3" stroke="#153144" stroke-width="6" stroke-miterlimit="10" stroke-linecap="round" stroke-linejoin="round"/>
</g>
<g opacity="0.2">
<path opacity="0.2" d="M591.1 524.3V539.3" stroke="#153144" stroke-width="6" stroke-miterlimit="10" stroke-linecap="round" stroke-linejoin="round"/>
</g>
<g opacity="0.2">
<path opacity="0.2" d="M571.1 524.3V539.3" stroke="#153144" stroke-width="6" stroke-miterlimit="10" stroke-linecap="round" stroke-linejoin="round"/>
</g>
<g opacity="0.2">
<path opacity="0.2" d="M551.1 524.3V539.3" stroke="#153144" stroke-width="6" stroke-miterlimit="10" stroke-linecap="round" stroke-linejoin="round"/>
</g>
<g opacity="0.2">
<path opacity="0.2" d="M531.1 524.3V539.3" stroke="#153144" stroke-width="6" stroke-miterlimit="10" stroke-linecap="round" stroke-linejoin="round"/>
</g>
</g>
</g>
<g opacity="0.2">
<g opacity="0.2">
<g opacity="0.2">
<path opacity="0.2" d="M631.1 484.3V499.3" stroke="#153144" stroke-width="6" stroke-miterlimit="10" stroke-linecap="round" stroke-linejoin="round"/>
</g>
<g opacity="0.2">
<path opacity="0.2" d="M611.1 484.3V499.3" stroke="#153144" stroke-width="6" stroke-miterlimit="10" stroke-linecap="round" stroke-linejoin="round"/>
</g>
<g opacity="0.2">
<path opacity="0.2" d="M591.1 484.3V499.3" stroke="#153144" stroke-width="6" stroke-miterlimit="10" stroke-linecap="round" stroke-linejoin="round"/>
</g>
<g opacity="0.2">
<path opacity="0.2" d="M571.1 484.3V499.3" stroke="#153144" stroke-width="6" stroke-miterlimit="10" stroke-linecap="round" stroke-linejoin="round"/>
</g>
<g opacity="0.2">
<path opacity="0.2" d="M551.1 484.3V499.3" stroke="#153144" stroke-width="6" stroke-miterlimit="10" stroke-linecap="round" stroke-linejoin="round"/>
</g>
<g opacity="0.2">
<path opacity="0.2" d="M531.1 484.3V499.3" stroke="#153144" stroke-width="6" stroke-miterlimit="10" stroke-linecap="round" stroke-linejoin="round"/>
</g>
</g>
</g>
<g opacity="0.2">
<g opacity="0.2">
<g opacity="0.2">
<path opacity="0.2" d="M631.1 444.3V459.3" stroke="#153144" stroke-width="6" stroke-miterlimit="10" stroke-linecap="round" stroke-linejoin="round"/>
</g>
<g opacity="0.2">
<path opacity="0.2" d="M611.1 444.3V459.3" stroke="#153144" stroke-width="6" stroke-miterlimit="10" stroke-linecap="round" stroke-linejoin="round"/>
</g>
<g opacity="0.2">
<path opacity="0.2" d="M591.1 444.3V459.3" stroke="#153144" stroke-width="6" stroke-miterlimit="10" stroke-linecap="round" stroke-linejoin="round"/>
</g>
<g opacity="0.2">
<path opacity="0.2" d="M571.1 444.3V459.3" stroke="#153144" stroke-width="6" stroke-miterlimit="10" stroke-linecap="round" stroke-linejoin="round"/>
</g>
<g opacity="0.2">
<path opacity="0.2" d="M551.1 444.3V459.3" stroke="#153144" stroke-width="6" stroke-miterlimit="10" stroke-linecap="round" stroke-linejoin="round"/>
</g>
<g opacity="0.2">
<path opacity="0.2" d="M531.1 444.3V459.3" stroke="#153144" stroke-width="6" stroke-miterlimit="10" stroke-linecap="round" stroke-linejoin="round"/>
</g>
</g>
</g>
</g>
<path opacity="0.2" d="M394.6 412.3H334V700.3H394.6V412.3Z" stroke="#153144" stroke-width="6" stroke-miterlimit="10" stroke-linecap="round" stroke-linejoin="round"/>
<g opacity="0.2">
<g opacity="0.2">
<g opacity="0.2">
<g opacity="0.2">
<path opacity="0.2" d="M351.1 604.3V619.3" stroke="#153144" stroke-width="6" stroke-miterlimit="10" stroke-linecap="round" stroke-linejoin="round"/>
<path opacity="0.36" d="M351.1 624.3V630.3" stroke="#153144" stroke-width="6" stroke-miterlimit="10" stroke-linecap="round" stroke-linejoin="round"/>
</g>
<g opacity="0.2">
<path opacity="0.2" d="M364.1 604.3V619.3" stroke="#153144" stroke-width="6" stroke-miterlimit="10" stroke-linecap="round" stroke-linejoin="round"/>
<path opacity="0.36" d="M364.1 624.3V630.3" stroke="#153144" stroke-width="6" stroke-miterlimit="10" stroke-linecap="round" stroke-linejoin="round"/>
</g>
<g opacity="0.2">
<path opacity="0.2" d="M377.1 604.3V619.3" stroke="#153144" stroke-width="6" stroke-miterlimit="10" stroke-linecap="round" stroke-linejoin="round"/>
<path opacity="0.36" d="M377.1 624.3V630.3" stroke="#153144" stroke-width="6" stroke-miterlimit="10" stroke-linecap="round" stroke-linejoin="round"/>
</g>
</g>
</g>
<g opacity="0.2">
<g opacity="0.2">
<g opacity="0.2">
<path opacity="0.2" d="M351.1 560.3V575.3" stroke="#153144" stroke-width="6" stroke-miterlimit="10" stroke-linecap="round" stroke-linejoin="round"/>
<path opacity="0.36" d="M351.1 580.3V586.3" stroke="#153144" stroke-width="6" stroke-miterlimit="10" stroke-linecap="round" stroke-linejoin="round"/>
</g>
<g opacity="0.2">
<path opacity="0.2" d="M364.1 560.3V575.3" stroke="#153144" stroke-width="6" stroke-miterlimit="10" stroke-linecap="round" stroke-linejoin="round"/>
<path opacity="0.36" d="M364.1 580.3V586.3" stroke="#153144" stroke-width="6" stroke-miterlimit="10" stroke-linecap="round" stroke-linejoin="round"/>
</g>
<g opacity="0.2">
<path opacity="0.2" d="M377.1 560.3V575.3" stroke="#153144" stroke-width="6" stroke-miterlimit="10" stroke-linecap="round" stroke-linejoin="round"/>
<path opacity="0.36" d="M377.1 580.3V586.3" stroke="#153144" stroke-width="6" stroke-miterlimit="10" stroke-linecap="round" stroke-linejoin="round"/>
</g>
</g>
</g>
<g opacity="0.2">
<g opacity="0.2">
<g opacity="0.2">
<path opacity="0.2" d="M351.1 516.3V531.3" stroke="#153144" stroke-width="6" stroke-miterlimit="10" stroke-linecap="round" stroke-linejoin="round"/>
<path opacity="0.36" d="M351.1 536.3V542.3" stroke="#153144" stroke-width="6" stroke-miterlimit="10" stroke-linecap="round" stroke-linejoin="round"/>
</g>
<g opacity="0.2">
<path opacity="0.2" d="M364.1 516.3V531.3" stroke="#153144" stroke-width="6" stroke-miterlimit="10" stroke-linecap="round" stroke-linejoin="round"/>
<path opacity="0.36" d="M364.1 536.3V542.3" stroke="#153144" stroke-width="6" stroke-miterlimit="10" stroke-linecap="round" stroke-linejoin="round"/>
</g>
<g opacity="0.2">
<path opacity="0.2" d="M377.1 516.3V531.3" stroke="#153144" stroke-width="6" stroke-miterlimit="10" stroke-linecap="round" stroke-linejoin="round"/>
<path opacity="0.36" d="M377.1 536.3V542.3" stroke="#153144" stroke-width="6" stroke-miterlimit="10" stroke-linecap="round" stroke-linejoin="round"/>
</g>
</g>
</g>
<g opacity="0.2">
<g opacity="0.2">
<g opacity="0.2">
<path opacity="0.2" d="M351.1 472.3V487.3" stroke="#153144" stroke-width="6" stroke-miterlimit="10" stroke-linecap="round" stroke-linejoin="round"/>
<path opacity="0.36" d="M351.1 492.3V498.3" stroke="#153144" stroke-width="6" stroke-miterlimit="10" stroke-linecap="round" stroke-linejoin="round"/>
</g>
<g opacity="0.2">
<path opacity="0.2" d="M364.1 472.3V487.3" stroke="#153144" stroke-width="6" stroke-miterlimit="10" stroke-linecap="round" stroke-linejoin="round"/>
<path opacity="0.36" d="M364.1 492.3V498.3" stroke="#153144" stroke-width="6" stroke-miterlimit="10" stroke-linecap="round" stroke-linejoin="round"/>
</g>
<g opacity="0.2">
<path opacity="0.2" d="M377.1 472.3V487.3" stroke="#153144" stroke-width="6" stroke-miterlimit="10" stroke-linecap="round" stroke-linejoin="round"/>
<path opacity="0.36" d="M377.1 492.3V498.3" stroke="#153144" stroke-width="6" stroke-miterlimit="10" stroke-linecap="round" stroke-linejoin="round"/>
</g>
</g>
</g>
<g opacity="0.2">
<g opacity="0.2">
<g opacity="0.2">
<path opacity="0.2" d="M351.1 428.3V443.3" stroke="#153144" stroke-width="6" stroke-miterlimit="10" stroke-linecap="round" stroke-linejoin="round"/>
<path opacity="0.36" d="M351.1 448.3V454.3" stroke="#153144" stroke-width="6" stroke-miterlimit="10" stroke-linecap="round" stroke-linejoin="round"/>
</g>
<g opacity="0.2">
<path opacity="0.2" d="M364.1 428.3V443.3" stroke="#153144" stroke-width="6" stroke-miterlimit="10" stroke-linecap="round" stroke-linejoin="round"/>
<path opacity="0.36" d="M364.1 448.3V454.3" stroke="#153144" stroke-width="6" stroke-miterlimit="10" stroke-linecap="round" stroke-linejoin="round"/>
</g>
<g opacity="0.2">
<path opacity="0.2" d="M377.1 428.3V443.3" stroke="#153144" stroke-width="6" stroke-miterlimit="10" stroke-linecap="round" stroke-linejoin="round"/>
<path opacity="0.36" d="M377.1 448.3V454.3" stroke="#153144" stroke-width="6" stroke-miterlimit="10" stroke-linecap="round" stroke-linejoin="round"/>
</g>
</g>
</g>
</g>
<path opacity="0.2" d="M713.8 616.1C736.444 616.1 754.8 590.625 754.8 559.2C754.8 527.775 736.444 502.3 713.8 502.3C691.156 502.3 672.8 527.775 672.8 559.2C672.8 590.625 691.156 616.1 713.8 616.1Z" stroke="#153144" stroke-width="6" stroke-miterlimit="10" stroke-linecap="round" stroke-linejoin="round"/>
<path opacity="0.2" d="M715.4 592.6L727.1 580.8" stroke="#153144" stroke-width="6" stroke-miterlimit="10" stroke-linecap="round" stroke-linejoin="round"/>
<path opacity="0.2" d="M713.8 574.7L701.3 563" stroke="#153144" stroke-width="6" stroke-miterlimit="10" stroke-linecap="round" stroke-linejoin="round"/>
<path opacity="0.2" d="M715.4 546.2V667.4" stroke="#153144" stroke-width="6" stroke-miterlimit="10" stroke-linecap="round" stroke-linejoin="round"/>
<path opacity="0.2" d="M451.6 187V239.4" stroke="#153144" stroke-width="6" stroke-miterlimit="10" stroke-linecap="round" stroke-linejoin="round"/>
</g>
<path d="M152.5 584.9C162.993 584.9 171.5 579.886 171.5 573.7C171.5 567.514 162.993 562.5 152.5 562.5C142.007 562.5 133.5 567.514 133.5 573.7C133.5 579.886 142.007 584.9 152.5 584.9Z" fill="#171717" fill-opacity="0.5"/>
<path d="M822 699.7C817.9 653.7 783.6 617.7 741.9 617.7C700.2 617.7 665.8 653.7 661.8 699.7H822Z" fill="#50D06F"/>
<path d="M766 649C766 638.3 762.9 628.2 757.6 619.4C752.5 618.3 747.3 617.7 741.9 617.7C700.2 617.7 665.8 653.7 661.8 699.7H736.6C754.3 688.4 766 669.9 766 649Z" fill="#3EC65C"/>
<path d="M864.5 699.7C862.3 675.3 844.1 656.2 822 656.2C799.9 656.2 781.7 675.3 779.5 699.7H864.5Z" fill="#50D06F"/>
<path d="M834.8 672.8C834.8 667.1 833.2 661.8 830.3 657.1C827.6 656.5 824.8 656.2 822 656.2C799.9 656.2 781.7 675.3 779.5 699.7H819.2C828.6 693.7 834.8 683.9 834.8 672.8Z" fill="#3EC65C"/>
<path d="M745.7 648.1V699.7" stroke="#153144" stroke-width="8" stroke-miterlimit="10" stroke-linecap="round" stroke-linejoin="round"/>
<path d="M718.7 656.2L745.7 672.9" stroke="#153144" stroke-width="8" stroke-miterlimit="10" stroke-linecap="round" stroke-linejoin="round"/>
<path d="M746.2 691.3L767.4 673.9" stroke="#153144" stroke-width="8" stroke-miterlimit="10" stroke-linecap="round" stroke-linejoin="round"/>
<path d="M787.7 526.7C829.121 526.7 862.7 478.794 862.7 419.7C862.7 360.606 829.121 312.7 787.7 312.7C746.279 312.7 712.7 360.606 712.7 419.7C712.7 478.794 746.279 526.7 787.7 526.7Z" fill="#50D06F"/>
<g style="mix-blend-mode:multiply" opacity="0.3">
<path d="M712.7 419.7C712.7 442.7 717.8 464 726.5 481.5C734.3 485.9 742.7 488.3 751.5 488.3C789.2 488.3 819.8 444.7 819.8 390.8C819.8 359 809.1 330.8 792.6 313C791 312.8 789.3 312.8 787.7 312.8C746.3 312.7 712.7 360.6 712.7 419.7Z" fill="#41D76B"/>
</g>
<path d="M871.3 699.7H238C229.3 699.7 222.2 692.6 222.2 683.9C222.2 675.2 229.3 668.1 238 668.1H258.2C265.2 668.1 270.9 662.4 270.9 655.4C270.9 648.4 265.2 642.7 258.2 642.7H186C178.5 642.7 172.5 636.7 172.5 629.2C172.5 621.7 178.5 615.7 186 615.7H201.2C212.1 615.7 220.9 606.9 220.9 596C220.9 585.1 212.1 576.3 201.2 576.3H152.5" stroke="#171717" stroke-width="8" stroke-miterlimit="10" stroke-linecap="round" stroke-linejoin="round"/>
<path d="M922.6 699.7H893.3" stroke="#171717" stroke-width="8" stroke-miterlimit="10" stroke-linecap="round" stroke-linejoin="round"/>
<path d="M116.9 435.5C136 414.6 168.9 414.6 188 435.5C201.3 450.1 204.3 471.5 195.6 489.2L152.5 576.3L109.4 489.2C100.6 471.5 103.6 450.1 116.9 435.5Z" fill="#50D06F"/>
<path d="M116.9 454.3C136 433.4 168.9 433.4 188 454.3C194 460.9 197.9 468.9 199.6 477.3C202.6 462.5 198.5 446.9 188 435.4C168.9 414.5 136 414.5 116.9 435.4C106.4 446.9 102.3 462.5 105.3 477.3C107 468.9 110.9 461 116.9 454.3Z" fill="#50D06F"/>
<path d="M116.9 435.5C136 414.6 168.9 414.6 188 435.5C201.3 450.1 204.3 471.5 195.6 489.2L152.5 576.3L109.4 489.2C100.6 471.5 103.6 450.1 116.9 435.5Z" stroke="#171717" stroke-width="8" stroke-miterlimit="10" stroke-linecap="round" stroke-linejoin="round"/>
<path d="M152.5 491C165.368 491 175.8 480.568 175.8 467.7C175.8 454.832 165.368 444.4 152.5 444.4C139.632 444.4 129.2 454.832 129.2 467.7C129.2 480.568 139.632 491 152.5 491Z" fill="black"/>
<path d="M152.5 491C165.368 491 175.8 480.568 175.8 467.7C175.8 454.832 165.368 444.4 152.5 444.4C139.632 444.4 129.2 454.832 129.2 467.7C129.2 480.568 139.632 491 152.5 491Z" stroke="#171717" stroke-width="8" stroke-miterlimit="10" stroke-linecap="round" stroke-linejoin="round"/>
<path d="M784.1 368.1C788.297 368.1 791.7 360.31 791.7 350.7C791.7 341.09 788.297 333.3 784.1 333.3C779.903 333.3 776.5 341.09 776.5 350.7C776.5 360.31 779.903 368.1 784.1 368.1Z" stroke="#171717" stroke-width="6" stroke-miterlimit="10" stroke-linecap="round" stroke-linejoin="round"/>
<path d="M766.142 420.782C769.155 417.86 766.173 409.899 759.481 403.001C752.79 396.103 744.923 392.88 741.91 395.803C738.898 398.726 741.88 406.687 748.571 413.585C755.262 420.482 763.129 423.705 766.142 420.782Z" stroke="#171717" stroke-width="6" stroke-miterlimit="10" stroke-linecap="round" stroke-linejoin="round"/>
<path d="M698.692 511.851C703.611 503.597 704.676 495.163 701.07 493.014C697.465 490.866 690.554 495.816 685.635 504.07C680.716 512.325 679.651 520.759 683.256 522.908C686.862 525.056 693.773 520.106 698.692 511.851Z" stroke="#171717" stroke-width="6" stroke-miterlimit="10" stroke-linecap="round" stroke-linejoin="round"/>
<path d="M845.526 625.201C849.723 625.195 853.114 617.4 853.101 607.79C853.087 598.18 849.674 590.395 845.476 590.401C841.279 590.407 837.887 598.202 837.901 607.811C837.915 617.421 841.328 625.206 845.526 625.201Z" stroke="#171717" stroke-width="6" stroke-miterlimit="10" stroke-linecap="round" stroke-linejoin="round"/>
<path d="M827.926 398.27C833.378 390.357 834.997 382.012 831.541 379.631C828.084 377.249 820.863 381.733 815.41 389.645C809.957 397.558 808.339 405.903 811.795 408.285C815.251 410.666 822.473 406.183 827.926 398.27Z" stroke="#171717" stroke-width="6" stroke-miterlimit="10" stroke-linecap="round" stroke-linejoin="round"/>
<path d="M823.162 476.155C827.393 470.015 828.647 463.54 825.964 461.691C823.281 459.842 817.676 463.32 813.446 469.459C809.216 475.598 807.961 482.074 810.644 483.923C813.327 485.772 818.932 482.294 823.162 476.155Z" stroke="#171717" stroke-width="6" stroke-miterlimit="10" stroke-linecap="round" stroke-linejoin="round"/>
<path d="M787.7 460.7L810.2 440.7" stroke="#171717" stroke-width="8" stroke-miterlimit="10" stroke-linecap="round" stroke-linejoin="round"/>
<path d="M787.7 494.7L759.7 472.8" stroke="#171717" stroke-width="8" stroke-miterlimit="10" stroke-linecap="round" stroke-linejoin="round"/>
<path d="M787.7 419.7V699.7" stroke="#171717" stroke-width="8" stroke-miterlimit="10" stroke-linecap="round" stroke-linejoin="round"/>
<path d="M469.7 501C469.7 501 457.6 517.8 456.1 519.3C454.6 520.8 415.3 526.6 415.3 526.6L410.9 541.3C410.9 541.3 459.7 537.8 464.2 533.3C468.7 528.8 481.2 512.6 481.2 512.6L469.7 501Z" fill="white"/>
<path d="M469.7 501C469.7 501 457.6 517.8 456.1 519.3C454.6 520.8 410.8 526.6 410.8 526.6L406.4 541.3C406.4 541.3 459.6 537.8 464.1 533.3C468.6 528.8 481.1 512.6 481.1 512.6L469.7 501Z" stroke="#171717" stroke-width="8" stroke-miterlimit="10" stroke-linecap="round" stroke-linejoin="round"/>
<path d="M563.1 699.7C596.071 699.7 622.8 672.971 622.8 640C622.8 607.029 596.071 580.3 563.1 580.3C530.128 580.3 503.4 607.029 503.4 640C503.4 672.971 530.128 699.7 563.1 699.7Z" fill="white"/>
<path d="M381 699.7C413.971 699.7 440.7 672.971 440.7 640C440.7 607.029 413.971 580.3 381 580.3C348.029 580.3 321.3 607.029 321.3 640C321.3 672.971 348.029 699.7 381 699.7Z" fill="white"/>
<path d="M381 699.7C413.971 699.7 440.7 672.971 440.7 640C440.7 607.029 413.971 580.3 381 580.3C348.029 580.3 321.3 607.029 321.3 640C321.3 672.971 348.029 699.7 381 699.7Z" stroke="#171717" stroke-width="8" stroke-miterlimit="10" stroke-linecap="round" stroke-linejoin="round"/>
<path d="M381 679.7C359.1 679.7 341.3 661.9 341.3 640C341.3 618.1 359.1 600.3 381 600.3C402.9 600.3 420.7 618.1 420.7 640C420.7 661.9 402.9 679.7 381 679.7Z" fill="#50D06F"/>
<path d="M346.1 658.8C343.1 653.2 341.4 646.8 341.4 640C341.4 626.7 347.9 615 358 607.8" stroke="#171717" stroke-width="6" stroke-miterlimit="10" stroke-linecap="round" stroke-linejoin="round"/>
<path d="M404.1 621.4C408.2 626.5 410.6 632.9 410.6 640C410.6 643.7 409.9 647.2 408.7 650.4" stroke="#171717" stroke-width="6" stroke-miterlimit="10" stroke-linecap="round" stroke-linejoin="round"/>
<path d="M381 640L410.8 541.3" stroke="#171717" stroke-width="8" stroke-miterlimit="10" stroke-linecap="round" stroke-linejoin="round"/>
<path d="M381 647C377.2 647 374 643.8 374 640C374 636.2 377.2 633 381 633C384.8 633 388 636.2 388 640C388 643.8 384.8 647 381 647Z" fill="#50D06F"/>
<path d="M381 647C377.2 647 374 643.8 374 640C374 636.2 377.2 633 381 633C384.8 633 388 636.2 388 640C388 643.8 384.8 647 381 647Z" stroke="#171717" stroke-width="8" stroke-miterlimit="10" stroke-linecap="round" stroke-linejoin="round"/>
<path d="M563.1 699.7C596.071 699.7 622.8 672.971 622.8 640C622.8 607.029 596.071 580.3 563.1 580.3C530.128 580.3 503.4 607.029 503.4 640C503.4 672.971 530.128 699.7 563.1 699.7Z" stroke="#171717" stroke-width="8" stroke-miterlimit="10" stroke-linecap="round" stroke-linejoin="round"/>
<path d="M563.1 679.7C541.2 679.7 523.4 661.9 523.4 640C523.4 618.1 541.2 600.3 563.1 600.3C585 600.3 602.8 618.1 602.8 640C602.8 661.9 585 679.7 563.1 679.7Z" fill="#90CAF8"/>
<path d="M570.5 601C588.9 604.5 602.8 620.6 602.8 640" stroke="#171717" stroke-width="6" stroke-miterlimit="10" stroke-linecap="round" stroke-linejoin="round"/>
<path d="M557.6 669.2C550.1 667.8 543.6 663.5 539.2 657.6" stroke="#153144" stroke-width="6" stroke-miterlimit="10" stroke-linecap="round" stroke-linejoin="round"/>
<path d="M409.7 559.8L464.6 642L563.5 641.9L508.6 559.7L409.7 559.8Z" stroke="#171717" stroke-width="8" stroke-miterlimit="10" stroke-linecap="round" stroke-linejoin="round"/>
<path d="M468.6 488.3C483.07 488.3 494.8 476.57 494.8 462.1C494.8 447.63 483.07 435.9 468.6 435.9C454.13 435.9 442.4 447.63 442.4 462.1C442.4 476.57 454.13 488.3 468.6 488.3Z" fill="white"/>
<path d="M481.3 451.4L461.9 488.3" stroke="#171717" stroke-width="8" stroke-miterlimit="10" stroke-linecap="round" stroke-linejoin="round"/>
<path d="M468.6 488.3C483.07 488.3 494.8 476.57 494.8 462.1C494.8 447.63 483.07 435.9 468.6 435.9C454.13 435.9 442.4 447.63 442.4 462.1C442.4 476.57 454.13 488.3 468.6 488.3Z" stroke="#171717" stroke-width="8" stroke-miterlimit="10" stroke-linecap="round" stroke-linejoin="round"/>
<path d="M502.1 458.1C504.2 448.5 502.9 439.7 497.8 433.6C486.9 420.6 461.7 424.2 440.5 442C434.7 446.9 429.8 452.3 425.8 458H502.1V458.1Z" fill="#50D06F"/>
<path d="M497.8 433.6C491.1 425.6 479.1 423.9 465.9 427.9C473 428.3 479 430.8 483 435.6C487.7 441.3 489.2 449.2 487.7 458.1H502.1C504.1 448.4 502.9 439.7 497.8 433.6Z" fill="#44FF71"/>
<path d="M502.1 458.1C504.2 448.5 502.9 439.7 497.8 433.6C486.9 420.6 461.7 424.2 440.5 442C434.7 446.9 429.8 452.3 425.8 458H502.1V458.1Z" stroke="#171717" stroke-width="8" stroke-miterlimit="10" stroke-linecap="round" stroke-linejoin="round"/>
<path d="M479.1 573.7C479.1 573.7 471.5 579.9 468.7 582.7C465.9 585.5 467.2 638 467.2 638H481.4C481.4 638 486.2 596.2 488.1 594.3C489.9 592.5 500.2 585.6 500.2 585.6L479.1 573.7Z" fill="white"/>
<path d="M479.1 573.7C479.1 573.7 471.5 579.9 468.7 582.7C465.9 585.5 467.2 638 467.2 638H481.4C481.4 638 486.2 596.2 488.1 594.3C489.9 592.5 500.2 585.6 500.2 585.6L479.1 573.7Z" stroke="#171717" stroke-width="8" stroke-miterlimit="10" stroke-linecap="round" stroke-linejoin="round"/>
<path d="M467.2 500.7L480.4 517.7L486.6 510.4L508.3 547.1L557.6 550.1C557.6 550.1 525.7 498.4 510.4 487.1C495.1 475.8 487 481 483.5 484.4C480.1 487.8 467.2 500.7 467.2 500.7Z" fill="#50D06F"/>
<path d="M526.2 548.1C523.4 518.1 506.2 493.4 483.3 484.5C479.6 488.2 467.2 500.6 467.2 500.6L480.4 517.6L486.6 510.3L508.3 547L526.2 548.1Z" fill="#44FF71"/>
<path d="M467.2 500.7L480.4 517.7L486.6 510.4L508.3 550.1H557.6C557.6 550.1 525.7 498.4 510.4 487.1C495.1 475.8 487 481 483.5 484.4C480.1 487.8 467.2 500.7 467.2 500.7Z" stroke="#171717" stroke-width="8" stroke-miterlimit="10" stroke-linecap="round" stroke-linejoin="round"/>
<path d="M487.5 654.2H453.9V648.7C453.9 643.8 457.7 639.8 462.5 639.5L487.4 638.1V654.2H487.5Z" fill="#50D06F"/>
<path d="M487.5 654.2H453.9V648.7C453.9 643.8 457.7 639.8 462.5 639.5L487.4 638.1V654.2H487.5Z" stroke="#171717" stroke-width="8" stroke-miterlimit="10" stroke-linecap="round" stroke-linejoin="round"/>
<path d="M476.9 572L500.1 589.7C500.1 589.7 550 572.7 557.6 550C519.6 550 508.3 550 508.3 550L476.9 572Z" fill="#50D06F"/>
<path opacity="0.63" d="M525.3 550C512.7 550 508.3 550 508.3 550L476.9 572L482.5 576.3C483.7 576.1 484.9 575.9 486.2 575.7C505.8 571.7 521.1 561.2 525.3 550Z" fill="#44FF71"/>
<path d="M476.9 572L500.1 589.7C500.1 589.7 550 572.7 557.6 550C519.6 550 508.3 550 508.3 550L476.9 572Z" stroke="#171717" stroke-width="8" stroke-miterlimit="10" stroke-linecap="round" stroke-linejoin="round"/>
<path d="M563.5 649C559.7 649 556.5 645.8 556.5 642C556.5 638.2 559.7 635 563.5 635C567.3 635 570.5 638.2 570.5 642C570.5 645.8 567.3 649 563.5 649Z" fill="#EF2C54"/>
<path d="M563.5 649C559.7 649 556.5 645.8 556.5 642C556.5 638.2 559.7 635 563.5 635C567.3 635 570.5 638.2 570.5 642C570.5 645.8 567.3 649 563.5 649Z" stroke="#153144" stroke-width="8" stroke-miterlimit="10" stroke-linecap="round" stroke-linejoin="round"/>
<path d="M549.8 435.2H557.6" stroke="#171717" stroke-width="8" stroke-miterlimit="10" stroke-linecap="round" stroke-linejoin="round"/>
<path d="M487.5 435.2H536.7" stroke="#171717" stroke-width="8" stroke-miterlimit="10" stroke-linecap="round" stroke-linejoin="round"/>
<path d="M588.7 656.2H661.7" stroke="#171717" stroke-width="8" stroke-miterlimit="10" stroke-linecap="round" stroke-linejoin="round"/>
<path d="M675.3 617.7H682.3" stroke="#153144" stroke-width="8" stroke-miterlimit="10" stroke-linecap="round" stroke-linejoin="round"/>
<path d="M634.2 617.7H661.7" stroke="#171717" stroke-width="8" stroke-miterlimit="10" stroke-linecap="round" stroke-linejoin="round"/>
<path d="M551.3 491H589.6" stroke="#171717" stroke-width="8" stroke-miterlimit="10" stroke-linecap="round" stroke-linejoin="round"/>
<path d="M346.1 576.3H312.6" stroke="#171717" stroke-width="8" stroke-miterlimit="10" stroke-linecap="round" stroke-linejoin="round"/>
<path d="M374.7 559.7H357.9" stroke="#171717" stroke-width="8" stroke-miterlimit="10" stroke-linecap="round" stroke-linejoin="round"/>
<path d="M626.1 499.186C626.1 499.186 614 515.986 612.5 517.486C611 518.986 571.7 524.786 571.7 524.786L567.3 539.486C567.3 539.486 616.1 535.986 620.6 531.486C625.1 526.986 637.6 510.786 637.6 510.786L626.1 499.186Z" fill="white"/>
<path d="M626.1 499.186C626.1 499.186 614 515.986 612.5 517.486C611 518.986 567.2 524.786 567.2 524.786L562.8 539.486C562.8 539.486 616 535.986 620.5 531.486C625 526.986 637.5 510.786 637.5 510.786L626.1 499.186Z" stroke="#171717" stroke-width="8" stroke-miterlimit="10" stroke-linecap="round" stroke-linejoin="round"/>
<path d="M719.5 697.886C752.471 697.886 779.2 671.158 779.2 638.186C779.2 605.215 752.471 578.486 719.5 578.486C686.529 578.486 659.8 605.215 659.8 638.186C659.8 671.158 686.529 697.886 719.5 697.886Z" fill="white"/>
<path d="M537.4 697.886C570.371 697.886 597.1 671.158 597.1 638.186C597.1 605.215 570.371 578.486 537.4 578.486C504.429 578.486 477.7 605.215 477.7 638.186C477.7 671.158 504.429 697.886 537.4 697.886Z" fill="white"/>
<path d="M537.4 697.886C570.371 697.886 597.1 671.158 597.1 638.186C597.1 605.215 570.371 578.486 537.4 578.486C504.429 578.486 477.7 605.215 477.7 638.186C477.7 671.158 504.429 697.886 537.4 697.886Z" stroke="#171717" stroke-width="8" stroke-miterlimit="10" stroke-linecap="round" stroke-linejoin="round"/>
<path d="M537.4 677.886C515.5 677.886 497.7 660.086 497.7 638.186C497.7 616.286 515.5 598.486 537.4 598.486C559.3 598.486 577.1 616.286 577.1 638.186C577.1 660.086 559.3 677.886 537.4 677.886Z" fill="#50D06F"/>
<path d="M502.5 656.986C499.5 651.386 497.8 644.986 497.8 638.186C497.8 624.886 504.3 613.186 514.4 605.986" stroke="#171717" stroke-width="6" stroke-miterlimit="10" stroke-linecap="round" stroke-linejoin="round"/>
<path d="M560.5 619.586C564.6 624.686 567 631.086 567 638.186C567 641.886 566.3 645.386 565.1 648.586" stroke="#171717" stroke-width="6" stroke-miterlimit="10" stroke-linecap="round" stroke-linejoin="round"/>
<path d="M537.4 638.186L567.2 539.486" stroke="#171717" stroke-width="8" stroke-miterlimit="10" stroke-linecap="round" stroke-linejoin="round"/>
<path d="M537.4 645.186C533.6 645.186 530.4 641.986 530.4 638.186C530.4 634.386 533.6 631.186 537.4 631.186C541.2 631.186 544.4 634.386 544.4 638.186C544.4 641.986 541.2 645.186 537.4 645.186Z" fill="#50D06F"/>
<path d="M537.4 645.186C533.6 645.186 530.4 641.986 530.4 638.186C530.4 634.386 533.6 631.186 537.4 631.186C541.2 631.186 544.4 634.386 544.4 638.186C544.4 641.986 541.2 645.186 537.4 645.186Z" stroke="#171717" stroke-width="8" stroke-miterlimit="10" stroke-linecap="round" stroke-linejoin="round"/>
<path d="M719.5 697.886C752.471 697.886 779.2 671.158 779.2 638.186C779.2 605.215 752.471 578.486 719.5 578.486C686.529 578.486 659.8 605.215 659.8 638.186C659.8 671.158 686.529 697.886 719.5 697.886Z" stroke="#171717" stroke-width="8" stroke-miterlimit="10" stroke-linecap="round" stroke-linejoin="round"/>
<path d="M719.5 677.886C697.6 677.886 679.8 660.086 679.8 638.186C679.8 616.286 697.6 598.486 719.5 598.486C741.4 598.486 759.2 616.286 759.2 638.186C759.2 660.086 741.4 677.886 719.5 677.886Z" fill="#50D06F"/>
<path d="M726.9 599.186C745.3 602.686 759.2 618.786 759.2 638.186" stroke="#171717" stroke-width="6" stroke-miterlimit="10" stroke-linecap="round" stroke-linejoin="round"/>
<path d="M714 667.386C706.5 665.986 700 661.686 695.6 655.786" stroke="#171717" stroke-width="6" stroke-miterlimit="10" stroke-linecap="round" stroke-linejoin="round"/>
<path d="M566.1 557.986L621 640.186L719.9 640.086L665 557.886L566.1 557.986Z" stroke="#171717" stroke-width="8" stroke-miterlimit="10" stroke-linecap="round" stroke-linejoin="round"/>
<path d="M625 486.486C639.47 486.486 651.2 474.756 651.2 460.286C651.2 445.816 639.47 434.086 625 434.086C610.53 434.086 598.8 445.816 598.8 460.286C598.8 474.756 610.53 486.486 625 486.486Z" fill="white"/>
<path d="M637.7 449.586L618.3 486.486" stroke="#171717" stroke-width="8" stroke-miterlimit="10" stroke-linecap="round" stroke-linejoin="round"/>
<path d="M625 486.486C639.47 486.486 651.2 474.756 651.2 460.286C651.2 445.816 639.47 434.086 625 434.086C610.53 434.086 598.8 445.816 598.8 460.286C598.8 474.756 610.53 486.486 625 486.486Z" stroke="#171717" stroke-width="8" stroke-miterlimit="10" stroke-linecap="round" stroke-linejoin="round"/>
<path d="M658.5 456.286C660.6 446.686 659.3 437.886 654.2 431.786C643.3 418.786 618.1 422.386 596.9 440.186C591.1 445.086 586.2 450.486 582.2 456.186H658.5V456.286Z" fill="#50D06F"/>
<path d="M654.2 431.786C647.5 423.786 635.5 422.086 622.3 426.086C629.4 426.486 635.4 428.986 639.4 433.786C644.1 439.486 645.6 447.386 644.1 456.286H658.5C660.5 446.586 659.3 437.886 654.2 431.786Z" fill="#44FF71"/>
<path d="M658.5 456.286C660.6 446.686 659.3 437.886 654.2 431.786C643.3 418.786 618.1 422.386 596.9 440.186C591.1 445.086 586.2 450.486 582.2 456.186H658.5V456.286Z" stroke="#171717" stroke-width="8" stroke-miterlimit="10" stroke-linecap="round" stroke-linejoin="round"/>
<path d="M635.5 571.886C635.5 571.886 627.9 578.086 625.1 580.886C622.3 583.686 623.6 636.186 623.6 636.186H637.8C637.8 636.186 642.6 594.386 644.5 592.486C646.3 590.686 656.6 583.786 656.6 583.786L635.5 571.886Z" fill="white"/>
<path d="M635.5 571.886C635.5 571.886 627.9 578.086 625.1 580.886C622.3 583.686 623.6 636.186 623.6 636.186H637.8C637.8 636.186 642.6 594.386 644.5 592.486C646.3 590.686 656.6 583.786 656.6 583.786L635.5 571.886Z" stroke="#171717" stroke-width="8" stroke-miterlimit="10" stroke-linecap="round" stroke-linejoin="round"/>
<path d="M623.6 498.886L636.8 515.886L643 508.586L664.7 545.286L714 548.286C714 548.286 682.1 496.586 666.8 485.286C651.5 473.986 643.4 479.186 639.9 482.586C636.5 485.986 623.6 498.886 623.6 498.886Z" fill="#50D06F"/>
<path d="M682.6 546.286C679.8 516.286 662.6 491.586 639.7 482.686C636 486.386 623.6 498.786 623.6 498.786L636.8 515.786L643 508.486L664.7 545.186L682.6 546.286Z" fill="#44FF71"/>
<path d="M623.6 498.886L636.8 515.886L643 508.586L664.7 548.286H714C714 548.286 682.1 496.586 666.8 485.286C651.5 473.986 643.4 479.186 639.9 482.586C636.5 485.986 623.6 498.886 623.6 498.886Z" stroke="#171717" stroke-width="8" stroke-miterlimit="10" stroke-linecap="round" stroke-linejoin="round"/>
<path d="M643.9 652.386H610.3V646.886C610.3 641.986 614.1 637.986 618.9 637.686L643.8 636.286V652.386H643.9Z" fill="#50D06F"/>
<path d="M643.9 652.386H610.3V646.886C610.3 641.986 614.1 637.986 618.9 637.686L643.8 636.286V652.386H643.9Z" stroke="#171717" stroke-width="8" stroke-miterlimit="10" stroke-linecap="round" stroke-linejoin="round"/>
<path d="M633.3 570.186L656.5 587.886C656.5 587.886 706.4 570.886 714 548.186C676 548.186 664.7 548.186 664.7 548.186L633.3 570.186Z" fill="#50D06F"/>
<path opacity="0.63" d="M681.7 548.186C669.1 548.186 664.7 548.186 664.7 548.186L633.3 570.186L638.9 574.486C640.1 574.286 641.3 574.086 642.6 573.886C662.2 569.886 677.5 559.386 681.7 548.186Z" fill="#44FF71"/>
<path d="M633.3 570.186L656.5 587.886C656.5 587.886 706.4 570.886 714 548.186C676 548.186 664.7 548.186 664.7 548.186L633.3 570.186Z" stroke="#171717" stroke-width="8" stroke-miterlimit="10" stroke-linecap="round" stroke-linejoin="round"/>
<path d="M719.9 647.186C716.1 647.186 712.9 643.986 712.9 640.186C712.9 636.386 716.1 633.186 719.9 633.186C723.7 633.186 726.9 636.386 726.9 640.186C726.9 643.986 723.7 647.186 719.9 647.186Z" fill="#50D06F"/>
<path d="M719.9 647.186C716.1 647.186 712.9 643.986 712.9 640.186C712.9 636.386 716.1 633.186 719.9 633.186C723.7 633.186 726.9 636.386 726.9 640.186C726.9 643.986 723.7 647.186 719.9 647.186Z" stroke="#171717" stroke-width="8" stroke-miterlimit="10" stroke-linecap="round" stroke-linejoin="round"/>
<path d="M706.2 433.386H714" stroke="#171717" stroke-width="8" stroke-miterlimit="10" stroke-linecap="round" stroke-linejoin="round"/>
<path d="M643.9 433.386H693.1" stroke="#171717" stroke-width="8" stroke-miterlimit="10" stroke-linecap="round" stroke-linejoin="round"/>
<path d="M745.1 654.386H818.1" stroke="#171717" stroke-width="8" stroke-miterlimit="10" stroke-linecap="round" stroke-linejoin="round"/>
<path d="M831.7 615.886H838.7" stroke="#171717" stroke-width="8" stroke-miterlimit="10" stroke-linecap="round" stroke-linejoin="round"/>
<path d="M790.6 615.886H818.1" stroke="#171717" stroke-width="8" stroke-miterlimit="10" stroke-linecap="round" stroke-linejoin="round"/>
<path d="M707.7 489.186H746" stroke="#171717" stroke-width="8" stroke-miterlimit="10" stroke-linecap="round" stroke-linejoin="round"/>
<path d="M502.5 574.486H469" stroke="#171717" stroke-width="8" stroke-miterlimit="10" stroke-linecap="round" stroke-linejoin="round"/>
<path d="M531.1 557.886H514.3" stroke="#171717" stroke-width="8" stroke-miterlimit="10" stroke-linecap="round" stroke-linejoin="round"/>
</svg>
