<svg width="228" height="48" viewBox="0 0 228 48" fill="none" xmlns="http://www.w3.org/2000/svg">
<path fill-rule="evenodd" clip-rule="evenodd" d="M50.8723 19.9229C50.0205 19.926 49.1906 20.1887 48.4967 20.6748C47.8027 21.1609 47.2788 21.8466 46.997 22.6376H38.7379C38.6917 22.6354 38.6454 22.6399 38.6005 22.6511L34.2579 15.2279C34.294 15.1903 34.3263 15.1493 34.3541 15.1055L38.518 8.06221C38.7708 8.11663 39.0288 8.14384 39.2876 8.14334C40.1947 8.13922 41.0753 7.84199 41.7939 7.29737C42.5126 6.75276 43.0296 5.99092 43.2654 5.129C43.5011 4.26708 43.4426 3.35281 43.0989 2.52679C42.7551 1.70078 42.1451 1.00875 41.3627 0.557138C40.7339 0.192635 40.0173 0.000715439 39.2876 0.00136347C38.5665 0.00259006 37.8583 0.189913 37.2337 0.544655C36.6092 0.899397 36.0901 1.40914 35.7283 2.02299C35.3006 2.75078 35.1107 3.59043 35.1844 4.42804C35.2582 5.26565 35.592 6.06066 36.1406 6.7052L31.9767 13.7485C31.9492 13.7779 31.9344 13.8167 31.9355 13.8567H23.0854C23.0778 13.8186 23.0639 13.7821 23.0442 13.7485L18.894 6.7052C19.2852 6.23547 19.5709 5.6896 19.7323 5.10345C19.8931 4.50142 19.9115 3.8711 19.7858 3.26101C19.6602 2.65092 19.394 2.07732 19.0078 1.58436C18.6215 1.0914 18.1254 0.692224 17.5577 0.41755C16.9901 0.142875 16.3659 2.85073e-05 15.7333 1.63569e-06C15.0036 -0.000646399 14.287 0.191273 13.6582 0.555776C12.8743 1.00765 12.2632 1.70083 11.9194 2.52834C11.5755 3.35585 11.5179 4.27172 11.7555 5.13463C11.9931 5.99754 12.5127 6.75952 13.2341 7.30303C13.9554 7.84653 14.8385 8.14135 15.7471 8.14198C16.0013 8.14248 16.2547 8.11527 16.5029 8.06085L20.6668 15.1041C20.6913 15.1575 20.7292 15.204 20.7767 15.2394L16.4342 22.6504C16.3847 22.6386 16.3338 22.6341 16.283 22.6369H8.03763C7.71232 21.7315 7.07221 20.9684 6.23042 20.4825C5.38864 19.9966 4.3994 19.8191 3.43752 19.9815C2.47565 20.1439 1.60308 20.6357 0.974045 21.3699C0.345007 22.1042 0 23.0336 0 23.9939C0 24.9542 0.345007 25.8837 0.974045 26.6179C1.60308 27.3521 2.47565 27.8439 3.43752 28.0063C4.3994 28.1687 5.38864 27.9912 6.23042 27.5053C7.07221 27.0194 7.71232 26.2563 8.03763 25.3509H16.283C16.3338 25.3538 16.3847 25.3492 16.4342 25.3374L20.7767 32.7471C20.7288 32.7821 20.6909 32.8286 20.6668 32.8823L16.5029 39.9391C16.2548 39.8845 16.0013 39.8571 15.7471 39.8573C14.8389 39.8588 13.9564 40.1541 13.2355 40.6978C12.5147 41.2414 11.9955 42.0032 11.7581 42.8658C11.5206 43.7284 11.5779 44.6439 11.9213 45.4712C12.2647 46.2985 12.875 46.9918 13.6582 47.4442C14.287 47.8087 15.0036 48.0006 15.7333 48C16.367 47.9994 16.992 47.8557 17.5604 47.58C18.1287 47.3043 18.6252 46.9038 19.0115 46.4096C19.3978 45.9153 19.6637 45.3404 19.7887 44.7291C19.9136 44.1179 19.8944 43.4865 19.7323 42.8837C19.5746 42.2977 19.2832 41.7547 18.8803 41.2961L23.0442 34.2529C23.064 34.2191 23.0779 34.1823 23.0854 34.144H31.9355C31.943 34.1823 31.9569 34.2191 31.9767 34.2529L36.1406 41.2961C35.7368 41.7522 35.4495 42.2964 35.3023 42.8837C35.1586 43.4012 35.1222 43.942 35.1954 44.4737C35.2686 45.0054 35.4498 45.5171 35.7283 45.9784C36.0901 46.5922 36.6092 47.1019 37.2337 47.4567C37.8583 47.8114 38.5665 47.9988 39.2876 48C40.0173 48.0006 40.7339 47.8087 41.3627 47.4442C42.1454 46.9927 42.7558 46.3007 43.0998 45.4745C43.4438 44.6484 43.5024 43.7339 43.2666 42.8718C43.0308 42.0097 42.5136 41.2476 41.7947 40.703C41.0758 40.1583 40.1949 39.8612 39.2876 39.8573C39.0288 39.8571 38.7708 39.8845 38.518 39.9391L34.3541 32.8823C34.3265 32.8384 34.2942 32.7974 34.2579 32.76L38.6005 25.3367C38.6454 25.3479 38.6917 25.3525 38.7379 25.3502H46.997C47.2521 26.0497 47.6976 26.6667 48.2848 27.134C48.872 27.6013 49.5783 27.9009 50.3268 28.0002C51.0752 28.0994 51.837 27.9944 52.5289 27.6967C53.2209 27.399 53.8164 26.92 54.2506 26.312C54.6847 25.7039 54.9408 24.9902 54.9909 24.2487C55.041 23.5073 54.8832 22.7665 54.5346 22.1073C54.186 21.448 53.6601 20.8956 53.0143 20.5105C52.3685 20.1253 51.6275 19.922 50.8723 19.9229ZM38.092 3.39352C38.2134 3.18744 38.3878 3.01644 38.5977 2.89775C38.8076 2.77906 39.0455 2.71685 39.2876 2.71739C39.5283 2.72049 39.7639 2.78536 39.9713 2.90559C40.1786 3.02582 40.3505 3.19722 40.4699 3.40287C40.5893 3.60851 40.652 3.84128 40.6519 4.07811C40.6519 4.31494 40.589 4.54765 40.4694 4.75321C40.2802 5.05782 39.9786 5.27868 39.6278 5.36965C39.277 5.46062 38.9039 5.41467 38.5867 5.24139C38.2751 5.05822 38.0488 4.76218 37.9563 4.41675C37.8638 4.07133 37.9125 3.70401 38.092 3.39352ZM16.4342 5.23935C16.1169 5.41263 15.7439 5.4586 15.3931 5.36763C15.0423 5.27666 14.7407 5.05579 14.5515 4.75119C14.4319 4.54562 14.369 4.3129 14.369 4.07607C14.3689 3.83923 14.4316 3.60649 14.551 3.40084C14.6704 3.1952 14.8423 3.02377 15.0496 2.90355C15.257 2.78332 15.4926 2.71845 15.7333 2.71534C16.0372 2.71208 16.3337 2.80805 16.5762 2.98823C16.8188 3.1684 16.9938 3.42262 17.074 3.71112C17.1541 3.99961 17.1347 4.30609 17.019 4.58261C16.9032 4.85913 16.6975 5.09009 16.4342 5.23935ZM4.14856 25.355C3.87561 25.3559 3.60851 25.2771 3.3811 25.1286C3.15369 24.98 2.97618 24.7684 2.87107 24.5206C2.76596 24.2727 2.73796 23.9997 2.79062 23.7362C2.84329 23.4726 2.97425 23.2304 3.16692 23.0401C3.35959 22.8499 3.6053 22.7201 3.87293 22.6674C4.14057 22.6147 4.4181 22.6413 4.67037 22.7438C4.92263 22.8464 5.1383 23.0203 5.29004 23.2436C5.44178 23.4668 5.52278 23.7294 5.52279 23.998C5.52243 24.3569 5.37768 24.7012 5.12017 24.9555C4.86267 25.2097 4.51336 25.3534 4.14856 25.355ZM16.9289 44.6119C16.7399 44.9167 16.4384 45.1378 16.0875 45.229C15.7366 45.3201 15.3635 45.2741 15.0462 45.1007C14.8895 45.0108 14.7524 44.8912 14.6427 44.749C14.533 44.6068 14.4529 44.4447 14.4069 44.272C14.361 44.0993 14.3501 43.9194 14.3749 43.7425C14.3997 43.5657 14.4597 43.3954 14.5515 43.2414C14.6756 43.0385 14.8509 42.8707 15.0604 42.7543C15.2699 42.6378 15.5064 42.5766 15.7471 42.5767C15.9891 42.5753 16.2271 42.6372 16.4369 42.7561C16.6466 42.8749 16.8205 43.0464 16.9407 43.2531C17.0609 43.4598 17.1232 43.6943 17.1211 43.9324C17.119 44.1706 17.0527 44.4039 16.9289 44.6085V44.6119ZM38.5867 42.7532C38.9035 42.578 39.2771 42.531 39.6285 42.6221C39.9799 42.7132 40.2815 42.9353 40.4694 43.2414C40.5612 43.3954 40.6212 43.5657 40.646 43.7425C40.6708 43.9194 40.6599 44.0993 40.614 44.272C40.568 44.4447 40.4879 44.6068 40.3782 44.749C40.2685 44.8912 40.1314 45.0108 39.9747 45.1007C39.7677 45.2249 39.53 45.2906 39.2876 45.2907C39.0454 45.2917 38.8073 45.2296 38.5974 45.1109C38.3874 44.9922 38.2131 44.8209 38.092 44.6146C37.9113 44.3016 37.8619 43.9316 37.9543 43.5833C38.0467 43.235 38.2736 42.9359 38.5867 42.7498V42.7532ZM31.8668 31.4348H23.1679L18.8253 23.9973L23.1679 16.574H31.8668L36.2093 23.9973L31.8668 31.4348ZM50.8723 25.355C50.5994 25.3559 50.3323 25.2771 50.1049 25.1286C49.8775 24.98 49.7 24.7684 49.5949 24.5206C49.4897 24.2727 49.4617 23.9997 49.5144 23.7362C49.5671 23.4726 49.698 23.2304 49.8907 23.0401C50.0834 22.8499 50.3291 22.7201 50.5967 22.6674C50.8644 22.6147 51.1419 22.6413 51.3941 22.7438C51.6464 22.8464 51.8621 23.0203 52.0138 23.2436C52.1656 23.4668 52.2466 23.7294 52.2466 23.998C52.2462 24.3569 52.1015 24.7012 51.844 24.9555C51.5865 25.2097 51.2371 25.3534 50.8723 25.355Z" fill="#50D06F"/>
<path d="M77.2042 37.288C75.8362 37.288 74.3602 37.24 72.7762 37.144C71.1922 37.072 69.8242 36.964 68.6722 36.82V34.66C69.9202 34.78 71.3002 34.888 72.8122 34.984C74.3242 35.08 75.5722 35.128 76.5562 35.128C77.8762 35.128 78.9202 35.08 79.6882 34.984C80.4802 34.864 81.1642 34.636 81.7402 34.3C82.2922 33.988 82.6522 33.508 82.8202 32.86C83.0122 32.188 83.1082 31.312 83.1082 30.232C83.1082 28.888 83.0362 27.952 82.8922 27.424C82.7722 26.896 82.4482 26.524 81.9202 26.308C81.4162 26.068 80.5162 25.876 79.2202 25.732L72.9202 25.048C71.4322 24.904 70.3282 24.568 69.6082 24.04C68.9122 23.512 68.4562 22.852 68.2402 22.06C68.0482 21.244 67.9522 20.128 67.9522 18.712C67.9522 16.816 68.2642 15.388 68.8882 14.428C69.5362 13.444 70.4722 12.784 71.6962 12.448C72.9202 12.112 74.5762 11.944 76.6642 11.944C78.0562 11.944 79.4482 11.992 80.8402 12.088C82.2562 12.184 83.3722 12.316 84.1882 12.484V14.536C83.2282 14.416 82.0762 14.32 80.7322 14.248C79.3882 14.152 78.1522 14.104 77.0242 14.104C75.6082 14.104 74.4682 14.176 73.6042 14.32C72.7402 14.464 72.0562 14.692 71.5522 15.004C71.0242 15.34 70.6762 15.796 70.5082 16.372C70.3402 16.948 70.2562 17.728 70.2562 18.712C70.2562 19.792 70.3282 20.596 70.4722 21.124C70.6402 21.628 70.9402 22 71.3722 22.24C71.8282 22.456 72.5482 22.624 73.5322 22.744L79.6522 23.392C81.2842 23.56 82.4962 23.812 83.2882 24.148C84.1042 24.484 84.6802 25.132 85.0162 26.092C85.2802 26.884 85.4122 28.204 85.4122 30.052C85.4122 32.212 85.0882 33.82 84.4402 34.876C83.7922 35.908 82.9042 36.568 81.7762 36.856C80.6722 37.144 79.1482 37.288 77.2042 37.288ZM91.3472 18.64H93.2912L93.3992 21.412H93.5792C94.0592 20.212 94.8272 19.408 95.8832 19C96.9632 18.568 98.2952 18.352 99.8792 18.352C101.823 18.352 103.275 18.616 104.235 19.144C105.219 19.672 105.903 20.596 106.287 21.916C106.671 23.236 106.863 25.204 106.863 27.82C106.863 30.412 106.671 32.368 106.287 33.688C105.927 35.008 105.255 35.944 104.271 36.496C103.311 37.024 101.871 37.288 99.9512 37.288C98.2712 37.288 96.9272 37.084 95.9192 36.676C94.9112 36.244 94.1792 35.536 93.7232 34.552H93.5432V44.2H91.3472V18.64ZM99.0872 35.2C100.815 35.2 102.051 35.032 102.795 34.696C103.539 34.36 104.031 33.7 104.271 32.716C104.535 31.732 104.667 30.1 104.667 27.82C104.667 25.54 104.535 23.908 104.271 22.924C104.031 21.94 103.539 21.28 102.795 20.944C102.051 20.608 100.815 20.44 99.0872 20.44C97.6712 20.44 96.5552 20.632 95.7392 21.016C94.9472 21.4 94.3952 22.024 94.0832 22.888C93.8432 23.488 93.6872 24.16 93.6152 24.904C93.5672 25.624 93.5432 26.596 93.5432 27.82C93.5432 28.972 93.5672 29.932 93.6152 30.7C93.6872 31.444 93.8072 32.056 93.9752 32.536C94.3352 33.472 94.9232 34.156 95.7392 34.588C96.5552 34.996 97.6712 35.2 99.0872 35.2ZM119.744 37.288C117.224 37.288 115.424 37.036 114.344 36.532C113.264 36.028 112.568 35.164 112.256 33.94C111.968 32.692 111.824 30.652 111.824 27.82C111.824 24.988 111.968 22.96 112.256 21.736C112.568 20.488 113.264 19.612 114.344 19.108C115.424 18.604 117.224 18.352 119.744 18.352C122.264 18.352 124.064 18.604 125.144 19.108C126.224 19.612 126.908 20.488 127.196 21.736C127.508 22.96 127.664 24.988 127.664 27.82C127.664 30.652 127.508 32.692 127.196 33.94C126.908 35.164 126.224 36.028 125.144 36.532C124.064 37.036 122.264 37.288 119.744 37.288ZM119.744 35.272C121.688 35.272 123.032 35.104 123.776 34.768C124.544 34.408 125.012 33.772 125.18 32.86C125.348 31.948 125.432 30.268 125.432 27.82C125.432 25.372 125.348 23.704 125.18 22.816C125.012 21.904 124.544 21.268 123.776 20.908C123.032 20.548 121.688 20.368 119.744 20.368C117.8 20.368 116.444 20.548 115.676 20.908C114.932 21.268 114.464 21.904 114.272 22.816C114.104 23.704 114.02 25.372 114.02 27.82C114.02 30.268 114.104 31.948 114.272 32.86C114.464 33.772 114.932 34.408 115.676 34.768C116.444 35.104 117.8 35.272 119.744 35.272ZM133.464 18.64H135.372L135.516 22.312H135.696C136.104 20.824 136.824 19.792 137.856 19.216C138.888 18.64 140.244 18.352 141.924 18.352V20.692C140.244 20.692 138.948 20.968 138.036 21.52C137.148 22.072 136.524 22.9 136.164 24.004C135.828 25.084 135.66 26.524 135.66 28.324V37H133.464V18.64ZM147.737 37V20.656H143.957V18.64H147.737V13.312H149.933V18.64H154.361V20.656H149.933V37H147.737ZM164.539 37.288C163.555 37.288 162.451 37.24 161.227 37.144C160.003 37.072 158.947 36.976 158.059 36.856V34.876C159.475 35.02 160.639 35.128 161.551 35.2C162.487 35.248 163.519 35.272 164.647 35.272C165.943 35.272 166.903 35.176 167.527 34.984C168.151 34.768 168.559 34.444 168.751 34.012C168.943 33.556 169.039 32.896 169.039 32.032C169.039 31.144 168.967 30.496 168.823 30.088C168.679 29.68 168.439 29.416 168.103 29.296C167.791 29.152 167.263 29.044 166.519 28.972L161.515 28.468C160.435 28.348 159.607 28.12 159.031 27.784C158.455 27.424 158.047 26.932 157.807 26.308C157.591 25.66 157.483 24.784 157.483 23.68C157.483 22.12 157.747 20.956 158.275 20.188C158.827 19.42 159.595 18.928 160.579 18.712C161.563 18.472 162.895 18.352 164.575 18.352C165.439 18.352 166.387 18.4 167.419 18.496C168.475 18.592 169.387 18.7 170.155 18.82V20.8C168.403 20.512 166.447 20.368 164.287 20.368C163.135 20.368 162.247 20.428 161.623 20.548C161.023 20.668 160.543 20.956 160.183 21.412C159.823 21.844 159.643 22.54 159.643 23.5C159.643 24.316 159.715 24.916 159.859 25.3C160.003 25.66 160.243 25.912 160.579 26.056C160.915 26.2 161.443 26.308 162.163 26.38L167.203 26.92C168.283 27.04 169.087 27.244 169.615 27.532C170.167 27.796 170.563 28.264 170.803 28.936C171.043 29.608 171.163 30.628 171.163 31.996C171.163 33.46 170.923 34.576 170.443 35.344C169.987 36.088 169.291 36.604 168.355 36.892C167.443 37.156 166.171 37.288 164.539 37.288ZM176.636 18.64H178.58L178.688 21.412H178.868C179.348 20.212 180.116 19.408 181.172 19C182.252 18.568 183.584 18.352 185.168 18.352C187.112 18.352 188.564 18.616 189.524 19.144C190.508 19.672 191.192 20.596 191.576 21.916C191.96 23.236 192.152 25.204 192.152 27.82C192.152 30.412 191.96 32.368 191.576 33.688C191.216 35.008 190.544 35.944 189.56 36.496C188.6 37.024 187.16 37.288 185.24 37.288C183.56 37.288 182.216 37.084 181.208 36.676C180.2 36.244 179.468 35.536 179.012 34.552H178.832V44.2H176.636V18.64ZM184.376 35.2C186.104 35.2 187.34 35.032 188.084 34.696C188.828 34.36 189.32 33.7 189.56 32.716C189.824 31.732 189.956 30.1 189.956 27.82C189.956 25.54 189.824 23.908 189.56 22.924C189.32 21.94 188.828 21.28 188.084 20.944C187.34 20.608 186.104 20.44 184.376 20.44C182.96 20.44 181.844 20.632 181.028 21.016C180.236 21.4 179.684 22.024 179.372 22.888C179.132 23.488 178.976 24.16 178.904 24.904C178.856 25.624 178.832 26.596 178.832 27.82C178.832 28.972 178.856 29.932 178.904 30.7C178.976 31.444 179.096 32.056 179.264 32.536C179.624 33.472 180.212 34.156 181.028 34.588C181.844 34.996 182.96 35.2 184.376 35.2ZM205.033 37.288C202.513 37.288 200.713 37.036 199.633 36.532C198.553 36.028 197.857 35.164 197.545 33.94C197.257 32.692 197.113 30.652 197.113 27.82C197.113 24.988 197.257 22.96 197.545 21.736C197.857 20.488 198.553 19.612 199.633 19.108C200.713 18.604 202.513 18.352 205.033 18.352C207.553 18.352 209.353 18.604 210.433 19.108C211.513 19.612 212.197 20.488 212.485 21.736C212.797 22.96 212.953 24.988 212.953 27.82C212.953 30.652 212.797 32.692 212.485 33.94C212.197 35.164 211.513 36.028 210.433 36.532C209.353 37.036 207.553 37.288 205.033 37.288ZM205.033 35.272C206.977 35.272 208.321 35.104 209.065 34.768C209.833 34.408 210.301 33.772 210.469 32.86C210.637 31.948 210.721 30.268 210.721 27.82C210.721 25.372 210.637 23.704 210.469 22.816C210.301 21.904 209.833 21.268 209.065 20.908C208.321 20.548 206.977 20.368 205.033 20.368C203.089 20.368 201.733 20.548 200.965 20.908C200.221 21.268 199.753 21.904 199.561 22.816C199.393 23.704 199.309 25.372 199.309 27.82C199.309 30.268 199.393 31.948 199.561 32.86C199.753 33.772 200.221 34.408 200.965 34.768C201.733 35.104 203.089 35.272 205.033 35.272ZM220.054 37V20.656H216.274V18.64H220.054V13.312H222.25V18.64H226.678V20.656H222.25V37H220.054Z" fill="white"/>
</svg>
